<svg width="800" height="800" viewBox="0 0 800 800" fill="none" xmlns="http://www.w3.org/2000/svg">
<rect width="800" height="800" fill="white"/>
<path d="M593.501 283C590.301 292.6 585.501 296.666 583.501 297.5L519.83 316.17C517.983 316.712 516.018 316.709 514.172 316.161L336.272 263.378C335.428 263.127 334.62 262.766 333.87 262.304L293.792 237.604C292.611 236.876 291.58 235.918 290.844 234.741C285.159 225.644 285.201 218.273 286.713 210.5C287.455 206.681 288.553 202.765 289.501 198.5C293.853 179.639 318.919 165.661 356 160.867C356.468 157.33 357.061 152.719 357.712 147.5C359.842 130.407 362.581 106.79 363.5 92.9999C365 70.4999 386.5 43.9999 481.5 59.4999C576.5 74.9999 579.5 117.5 574 136C570.56 147.57 562.415 172.388 556.395 190.5C554.715 195.556 553.2 200.09 552 203.667C569.988 214.753 581.338 225.61 589.501 234C607.405 252.402 597.606 270.804 593.565 282.809C593.545 282.875 593.523 282.938 593.501 283Z" fill="#9D65F7"/>
<path d="M555.5 188L551.5 204L491 176.5L423 162L357.5 160V145.5L392 134.5H435L479 145.5L526 165.5L555.5 188Z" fill="#7C21FF"/>
<path d="M286.713 210.5C287.455 206.681 288.553 202.765 289.501 198.5C293.853 179.639 318.919 165.661 356 160.867C382.814 157.401 415.91 158.736 452.001 166.5C499.002 176.61 530.321 190.305 552 203.667C569.988 214.753 581.338 225.61 589.501 234C607.501 252.5 597.501 271 593.501 283C590.301 292.6 585.501 296.666 583.501 297.5L519.83 316.17C517.983 316.712 516.018 316.709 514.172 316.161L336.272 263.377C335.428 263.127 334.62 262.766 333.87 262.304L293.792 237.604C292.611 236.876 291.58 235.918 290.844 234.741C285.159 225.644 285.201 218.273 286.713 210.5ZM593.501 283C595.167 278.5 589.2 262.4 552 234C505.5 198.5 460.5 185.5 401 180C341.5 174.5 291.925 192 286.713 210.5M356 160.867C356.468 157.33 357.061 152.719 357.712 147.5C359.842 130.407 362.581 106.79 363.5 92.9999C365 70.4999 386.5 43.9999 481.5 59.4999C576.5 74.9999 579.5 117.5 574 136C570.56 147.57 562.415 172.388 556.395 190.5C554.715 195.556 553.2 200.09 552 203.667M357.712 147.5C371.641 137.833 412.1 127 466.5 143C520.9 159 549.43 179.833 556.395 190.5M388 210.5C416.333 207.667 486.4 212.8 540 256" stroke="#080015" stroke-width="8"/>
</svg>
