<svg width="800" height="800" viewBox="0 0 800 800" fill="none" xmlns="http://www.w3.org/2000/svg">
<rect width="800" height="800" fill="white"/>
<path d="M556.166 336.017C550.59 336.016 546.152 339.692 545.587 344.51C545.202 347.791 545 351.18 545 354.648C545 369.857 548.877 383.437 554.933 393.087C561.023 402.791 568.928 408.016 577 408.016C585.072 408.016 592.977 402.791 599.067 393.087C605.123 383.437 609 369.857 609 354.648C609 351.18 608.798 347.792 608.413 344.511C607.848 339.693 603.41 336.016 597.833 336.017C591.884 336.017 586.132 336.019 577 336.019C568.639 336.019 561.962 336.017 556.166 336.017Z" stroke="#080015" stroke-width="8" stroke-linejoin="round"/>
<path d="M428.164 336.016C423.135 336.015 419.118 338.958 418.242 342.996C417.429 346.743 417 350.642 417 354.648C417 384.214 440.372 408.016 469 408.016C497.628 408.016 521 384.214 521 354.648C521 350.642 520.571 346.743 519.758 342.996C518.882 338.959 514.862 336.016 509.831 336.017C496.978 336.017 487.402 336.019 469 336.019C451.753 336.019 439.109 336.016 428.164 336.016Z" stroke="#080015" stroke-width="8" stroke-linejoin="round"/>
</svg>
