<svg width="800" height="800" viewBox="0 0 800 800" fill="none" xmlns="http://www.w3.org/2000/svg">
<rect width="800" height="800" fill="white"/>
<path d="M593.501 352C590.301 361.6 585.501 365.666 583.501 366.5L519.83 385.17C517.983 385.712 516.018 385.709 514.172 385.161L336.272 332.378C335.428 332.127 334.62 331.766 333.87 331.304L293.792 306.604C292.611 305.876 291.58 304.918 290.844 303.741C285.159 294.644 285.201 287.273 286.713 279.5C287.455 275.681 288.553 271.765 289.501 267.5C293.853 248.639 318.919 234.661 356 229.867C356.468 226.33 357.061 221.719 357.712 216.5C359.842 199.407 362.581 175.79 363.5 162C365 139.5 386.5 113 481.5 128.5C576.5 144 579.5 186.5 574 205C570.56 216.57 562.415 241.388 556.395 259.5C554.715 264.556 553.2 269.09 552 272.667C569.988 283.753 581.338 294.61 589.501 303C607.405 321.402 597.606 339.804 593.565 351.809C593.545 351.875 593.523 351.938 593.501 352Z" fill="#9D65F7"/>
<path d="M555.5 257L551.5 273L491 245.5L423 231L357.5 229V214.5L392 203.5H435L479 214.5L526 234.5L555.5 257Z" fill="#7C21FF"/>
<path d="M286.713 279.5C287.455 275.681 288.553 271.765 289.501 267.5C293.853 248.639 318.919 234.661 356 229.867C382.814 226.401 415.91 227.736 452.001 235.5C499.002 245.61 530.321 259.305 552 272.667C569.988 283.753 581.338 294.61 589.501 303C607.501 321.5 597.501 340 593.501 352C590.301 361.6 585.501 365.666 583.501 366.5L519.83 385.17C517.983 385.712 516.018 385.709 514.172 385.161L336.272 332.377C335.428 332.127 334.62 331.766 333.87 331.304L293.792 306.604C292.611 305.876 291.58 304.918 290.844 303.741C285.159 294.644 285.201 287.273 286.713 279.5ZM593.501 352C595.167 347.5 589.2 331.4 552 303C505.5 267.5 460.5 254.5 401 249C341.5 243.5 291.925 261 286.713 279.5M356 229.867C356.468 226.33 357.061 221.719 357.712 216.5C359.842 199.407 362.581 175.79 363.5 162C365 139.5 386.5 113 481.5 128.5C576.5 144 579.5 186.5 574 205C570.56 216.57 562.415 241.388 556.395 259.5C554.715 264.556 553.2 269.09 552 272.667M357.712 216.5C371.641 206.833 412.1 196 466.5 212C520.9 228 549.43 248.833 556.395 259.5M388 279.5C416.333 276.667 486.4 281.8 540 325" stroke="#080015" stroke-width="8"/>
</svg>
