<svg width="800" height="800" viewBox="0 0 800 800" fill="none" xmlns="http://www.w3.org/2000/svg">
<rect width="800" height="800" fill="white"/>
<path d="M313.172 200.275C338.693 194.923 355.386 202.793 364.792 211.79C377.427 209.36 403.414 205.728 406.284 210.646C406.422 210.882 406.418 211.14 406.281 211.417L406.031 270.492C402.779 275.336 383.758 287.648 333.695 298.146C283.633 308.644 263.785 304.483 260.119 301.091L237.307 246C236.906 245.692 236.74 245.316 236.837 244.865C238.164 238.673 261.954 233.027 272.88 231.064C276.723 219.288 287.65 205.627 313.172 200.275Z" fill="#9D65F7"/>
<path d="M271.208 244.386C270.758 240.781 271.155 236.352 272.88 231.064M373.195 223.498C371.77 220.098 369.015 215.83 364.792 211.79M364.792 211.79C355.386 202.793 338.693 194.923 313.172 200.275C287.65 205.627 276.723 219.288 272.88 231.064M364.792 211.79C377.427 209.36 403.414 205.728 406.284 210.646M272.88 231.064C261.954 233.027 238.164 238.673 236.837 244.865C235.402 251.561 291.654 241.693 320.695 236.15C350.42 229.698 409.154 215.563 406.284 210.646M406.284 210.646L406.031 270.492C402.779 275.336 383.758 287.648 333.695 298.146C283.633 308.644 263.785 304.483 260.119 301.091L236.837 244.865" stroke="#080015" stroke-width="8"/>
</svg>
