<svg width="800" height="800" viewBox="0 0 800 800" fill="none" xmlns="http://www.w3.org/2000/svg">
<rect width="800" height="800" fill="white"/>
<path d="M552.613 405.38C561.953 373.171 574.744 295.607 560.355 218.939M553.472 189.789C556.249 199.427 558.522 209.176 560.355 218.939M560.355 218.939C555.516 215.783 544.253 206.367 537.916 193.957M560.355 218.939C564.024 214.75 571.197 202.14 570.535 185.217" stroke="#080015" stroke-width="8" stroke-linecap="round"/>
<path d="M244.731 407C235.39 374.791 222.6 297.227 236.989 220.559M243.871 191.409C241.094 201.047 238.821 210.796 236.989 220.559M236.989 220.559C241.828 217.403 253.091 207.987 259.428 195.577M236.989 220.559C233.32 216.37 226.147 203.76 226.809 186.837" stroke="#080015" stroke-width="8" stroke-linecap="round"/>
<path d="M398.5 78.5699C387.262 58.5502 365.664 45 340.857 45C304.486 45 275 74.1455 275 110.111C275 165.289 369.663 220.466 398.5 236C427.337 220.481 522 165.289 522 110.111C522 74.1604 492.514 45 456.129 45C431.335 45 409.739 58.5502 398.5 78.5699Z" stroke="#080015" stroke-width="8" stroke-miterlimit="10" stroke-linecap="round" stroke-linejoin="round" stroke-dasharray="17 17"/>
</svg>
