<svg width="800" height="800" viewBox="0 0 800 800" fill="none" xmlns="http://www.w3.org/2000/svg">
<rect width="800" height="800" fill="white"/>
<path d="M220.941 391.144C193.628 418.774 137.732 490.673 110.004 576.684M100.898 610.167C103.398 598.819 106.473 587.637 110.004 576.684M110.004 576.684C113.186 582.573 119.448 598.384 119.041 614.522M110.004 576.684C103.952 578.921 89.6795 587.795 80.9991 605.39" stroke="#080015" stroke-width="8" stroke-linecap="round"/>
<path d="M583 397.996C697.405 552.495 617.446 592.418 562.599 557.645M534.186 537.726C543.365 544.852 552.88 551.482 562.599 557.645M562.599 557.645C561.279 551.083 555.982 534.922 545.349 522.776M562.599 557.645C556.516 559.795 539.868 562.1 521.942 554.124" stroke="#080015" stroke-width="8" stroke-linecap="round"/>
<path d="M502.49 408.446L501.571 412.481L467.913 560.273C467.384 562.597 468.28 565.015 470.198 566.431L481.088 574.477L529.118 557.774C535.312 555.62 540.056 550.567 541.815 544.25L584 392.793L574.888 384.152C573.463 382.801 571.467 382.232 569.544 382.63L517.94 393.301C510.268 394.888 504.229 400.807 502.49 408.446Z" fill="#9D65F7" stroke="#080015" stroke-width="8"/>
<path d="M513.59 418.243L512.691 422.193L479.304 568.796C478.345 573.007 482.015 576.822 486.26 576.026L537.227 566.467C545.059 564.998 551.272 559.02 553.041 551.25L587.483 400.014C588.449 395.772 584.72 391.944 580.454 392.799L529.163 403.074C521.437 404.622 515.34 410.561 513.59 418.243Z" fill="#9D65F7" stroke="#080015" stroke-width="8"/>
<path d="M524.296 425.286L521.798 436.251L517.776 453.915C516.972 457.444 520.068 460.631 523.62 459.93L547.955 455.124C553.379 454.053 557.665 449.89 558.893 444.498L565.57 415.18C566.386 411.596 563.187 408.386 559.601 409.191L534.882 414.734C529.614 415.915 525.494 420.021 524.296 425.286Z" fill="#9D65F7" stroke="#080015" stroke-width="8"/>
<ellipse cx="536.624" cy="427.544" rx="5.36103" ry="7.76187" transform="rotate(42.8295 536.624 427.544)" fill="#080015"/>
<ellipse cx="548.634" cy="433.356" rx="5.36103" ry="7.76187" transform="rotate(42.8295 548.634 433.356)" fill="#080015"/>
<ellipse cx="532.628" cy="445.095" rx="5.36103" ry="7.76187" transform="rotate(42.8295 532.628 445.095)" fill="#080015"/>
</svg>
