<svg width="113" height="113" viewBox="0 0 113 113" fill="none" xmlns="http://www.w3.org/2000/svg">
<rect width="113" height="113" fill="#F5F5F5"/>
<g id="mouth-8">
<path id="Vector 158 (Stroke)" fill-rule="evenodd" clip-rule="evenodd" d="M54.4304 63.3855C54.3387 63.35 54.2488 63.3106 54.1608 63.2673C54.2558 63.2881 54.3476 63.3274 54.4304 63.3855Z" fill="#1B1D1A"/>
<g id="Vector 159 (Stroke)">
<path d="M48.3759 61.0841C48.6057 60.7394 49.0713 60.6463 49.416 60.876C49.6869 61.0567 49.991 61.2278 50.3242 61.3878C51.1743 61.7959 52.1887 62.1222 53.2665 62.3682C54.416 62.6306 55.619 62.797 56.7402 62.876C57.6443 62.9398 58.4863 62.9459 59.1962 62.9024C59.65 62.8746 60.0401 62.8272 60.3525 62.7647C60.7585 62.6835 61.1539 62.9466 61.2353 63.3526C61.3165 63.7587 61.0534 64.154 60.6474 64.2354C60.3902 64.2869 60.1058 64.3258 59.8017 64.3565L58.7138 67.7305C58.6144 68.0384 58.3283 68.2478 58.0048 68.2501C57.6815 68.2522 57.3937 68.0465 57.29 67.7403L56.1347 64.3311C55.2496 64.2509 54.3264 64.1212 53.4189 63.9356L51.6074 66.4395C51.4367 66.6753 51.1452 66.791 50.8593 66.7364C50.5734 66.6817 50.3451 66.4668 50.2734 66.1846L49.3574 62.5792C49.0871 62.4377 48.8279 62.2867 48.5839 62.1241C48.2393 61.8943 48.1462 61.4287 48.3759 61.0841ZM57.9824 65.1114L58.2031 64.4278C58.0542 64.4276 57.9027 64.4255 57.749 64.4219L57.9824 65.1114ZM51.332 64.2618L51.8476 63.5489C51.5912 63.4747 51.3381 63.3955 51.0898 63.3106L51.332 64.2618Z" fill="#1B1D1A"/>
<path d="M51.332 64.2618L51.8476 63.5489C51.5912 63.4747 51.3381 63.3955 51.0898 63.3106L51.332 64.2618Z" fill="white"/>
<path d="M57.9824 65.1114L58.2031 64.4278C58.0542 64.4276 57.9027 64.4255 57.749 64.4219L57.9824 65.1114Z" fill="white"/>
</g>
</g>
</svg>
