<svg width="113" height="113" viewBox="0 0 113 113" fill="none" xmlns="http://www.w3.org/2000/svg">
<rect width="113" height="113" fill="#F5F5F5"/>
<g id="skin-2" clip-path="url(#clip0_92_134)">
<rect width="113" height="113" fill="#EBEBE9"/>
<g id="Group 33642">
<g id="Vector">
<path d="M83.2212 109.793C80.3481 88.488 70.005 77.5477 56.2141 77.5477C29.207 77.5477 28.6323 112.096 30.9308 150.099C33.2293 188.102 54.4902 204.225 63.1095 204.225C71.7288 204.225 78.0496 192.133 78.6243 182.92C79.1989 173.707 86.0943 131.098 83.2212 109.793Z" fill="#C7C7CC"/>
<path fill-rule="evenodd" clip-rule="evenodd" d="M80.116 57.415C82.9908 62.5048 76.0912 74.3807 59.992 74.3807C43.8929 74.3807 38.1734 63.6358 39.8681 57.415C41.5628 51.1943 46.1926 42.7114 57.6921 42.7114C72.7845 42.7114 76.4322 50.0714 79.0342 55.3213C79.406 56.0715 79.7565 56.7786 80.116 57.415Z" fill="#C7C7CC"/>
</g>
</g>
</g>
<defs>
<clipPath id="clip0_92_134">
<rect width="113" height="113" fill="white"/>
</clipPath>
</defs>
</svg>
